<svg width="32" height="33" viewBox="0 0 32 33" fill="none" xmlns="http://www.w3.org/2000/svg">
<path d="M29.5276 4.55407C29.0476 4.14703 28.2937 4.08879 27.5142 4.40175H27.5129C26.6931 4.73071 4.30587 14.3333 3.39451 14.7256C3.22875 14.7832 1.78107 15.3234 1.93019 16.5266C2.06331 17.6114 3.22683 18.0606 3.36891 18.1125L9.06043 20.0613C9.43803 21.3182 10.83 25.9557 11.1379 26.9464C11.3299 27.564 11.6428 28.3755 12.1913 28.5426C12.6726 28.7282 13.1513 28.5586 13.4611 28.3154L16.9408 25.0878L22.558 29.4686L22.6918 29.5486C23.0732 29.7176 23.4387 29.8021 23.7875 29.8021C24.0569 29.8021 24.3155 29.7515 24.5625 29.6504C25.4041 29.3048 25.7408 28.5029 25.776 28.412L29.9718 6.60271C30.2278 5.43791 29.872 4.84527 29.5276 4.55407ZM14.08 20.8408L12.16 25.9608L10.24 19.5608L24.96 8.68079L14.08 20.8408Z" fill="white"/>
</svg>
