<svg width="32" height="33" viewBox="0 0 32 33" fill="none" xmlns="http://www.w3.org/2000/svg">
<path d="M30.5086 23.8291C29.3106 21.6731 26.2246 19.0825 24.9506 17.9551C24.6019 17.6465 24.5646 17.1125 24.8819 16.7711C27.3133 14.1585 29.2579 11.1565 29.9273 9.34248C30.2226 8.54114 29.6113 7.69448 28.7499 7.69448H26.2479C25.4233 7.69448 24.9406 7.99048 24.7106 8.46181C22.6899 12.6025 20.9566 14.3945 19.7433 15.4418C19.0639 16.0285 18.0046 15.5425 18.0046 14.6498C18.0046 12.9298 18.0046 10.7065 18.0046 9.12981C18.0046 8.36514 17.3793 7.74648 16.6079 7.74648L12.0373 7.69448C11.4619 7.69448 11.1333 8.34581 11.4786 8.80248L12.2333 9.88581C12.5173 10.2611 12.6706 10.7178 12.6706 11.1865L12.6666 16.0651C12.6666 16.9138 11.6379 17.3285 11.0273 16.7338C8.96126 14.7218 7.16859 10.6131 6.52326 8.64848C6.33659 8.07981 5.80393 7.69581 5.19993 7.69448L2.73526 7.68848C1.81059 7.68848 1.13459 8.56514 1.38593 9.44781C3.63793 17.3525 8.25859 24.8725 16.4933 25.6878C17.3046 25.7678 18.0046 25.1145 18.0046 24.3058V21.7418C18.0046 21.0065 18.5813 20.3745 19.3226 20.3558C19.3486 20.3551 19.3746 20.3551 19.4006 20.3551C21.5786 20.3551 24.0179 23.5251 24.8713 25.0078C25.1166 25.4345 25.5753 25.6945 26.0713 25.6945H29.3866C30.3539 25.6945 30.9746 24.6685 30.5086 23.8291Z" fill="white"/>
</svg>
