<svg width="32" height="33" viewBox="0 0 32 33" fill="none" xmlns="http://www.w3.org/2000/svg">
<path d="M15.9049 6.02734C11.6697 6.02734 7.73481 6.32909 5.4895 6.79818C5.48472 6.79944 5.47994 6.80075 5.47518 6.80208C3.78357 7.18114 2.19071 8.39283 1.85539 10.2904C1.85494 10.293 1.85451 10.2956 1.85409 10.2982C1.59648 11.8275 1.33325 13.8211 1.33325 16.694C1.33325 19.5614 1.59738 21.5022 1.9231 23.112C2.26664 24.9535 3.82273 26.2019 5.54028 26.5859C5.5485 26.5882 5.55675 26.5904 5.56502 26.5924C7.90839 27.0542 11.7322 27.3607 15.9674 27.3607C20.2025 27.3607 24.0284 27.0542 26.3723 26.5924C26.3806 26.5904 26.3888 26.5882 26.3971 26.5859C28.0887 26.2069 29.6815 24.9952 30.0168 23.0977C30.0177 23.0929 30.0186 23.0881 30.0195 23.0833C30.2731 21.5228 30.6018 19.5311 30.6666 16.6536C30.6667 16.6463 30.6667 16.6389 30.6666 16.6315C30.6666 13.7525 30.3371 11.7465 30.0155 10.1576C29.6747 8.31206 28.1168 7.06033 26.3971 6.67578C26.3708 6.66994 26.3443 6.66516 26.3176 6.66146C24.0309 6.33998 20.1407 6.02734 15.9049 6.02734ZM13.4374 11.6953C13.6844 11.6902 13.9396 11.7486 14.1796 11.8841L19.9153 15.125C20.8826 15.6717 20.8826 17.051 19.9153 17.5977L14.1796 20.8385C13.2203 21.3799 12.0247 20.6942 12.0247 19.6016V13.1198C12.0247 12.3003 12.6966 11.7106 13.4374 11.6953Z" fill="white"/>
</svg>
